<svg xmlns="http://www.w3.org/2000/svg" width="566.9" height="566.9"><svg xmlns:i="&amp;ns_ai;" xmlns:svg="http://www.w3.org/2000/svg" xmlns="http://www.w3.org/2000/svg" version="1.1" x="0" y="0" viewBox="0 0 566.9 566.9" xml:space="preserve" id="SvgjsSvg1023"><switch id="SvgjsSwitch1019" transform="translate(0 -26)"><g i:extraneous="self" id="SvgjsG1018"><g id="SvgjsG1017"><g id="SvgjsG1016"><path d="M86.3 294.3c7.6 8.8 14.8 17 21.8 24.7 7 7.7 13.5 14.9 19.9 21.8 6.4 6.9 12.5 13.5 18.5 19.8 6 6.3 11.9 12.4 17.7 18.4 5.8 6 11.6 11.9 17.5 17.7 5.9 5.9 11.8 11.7 17.8 17.6 6.1 5.9 12.3 11.9 18.7 18 6.5 6.1 13.2 12.4 20.2 18.8s14.4 13.2 22.3 20.1v78.4c9.4 4.95 15.25 6.25 22.15 6.25 6.9 0 14.75-1.6 23.65-6.15v-78.1c7.9-6.9 15.3-13.6 22.4-20.1 7.1-6.5 13.9-12.7 20.4-18.8 6.5-6.1 12.8-12.1 18.9-18 6.1-5.9 12.1-11.7 18-17.6 5.9-5.9 11.7-11.7 17.6-17.7 5.9-6 11.8-12.1 17.9-18.5 6.1-6.3 12.3-12.9 18.7-19.8 6.4-6.9 13.1-14.2 20-21.9 6.9-7.7 14.2-15.9 21.9-24.7-11.1 3-21.9 5.7-32.3 8.1-10.5 2.4-20.6 4.4-30.5 6.2-9.9 1.8-19.5 3.4-29 4.7-9.5 1.3-18.6 2.5-27.7 3.4-9.1.9-17.9 1.7-26.7 2.3-8.8.6-17.5 1.1-26.1 1.3-8.6.2-17.2.4-25.7.4s-17.1-.1-25.7-.4c-8.6-.3-17.3-.7-26.1-1.3-8.8-.6-17.7-1.4-26.7-2.3-9-1-18.3-2.1-27.7-3.4-9.4-1.3-19.1-2.9-29-4.7-9.9-1.8-20-3.9-30.5-6.2-10.4-2.6-21.2-5.3-32.3-8.3z" id="SvgjsPath1015" style="fill:#1c1c1b"/></g></g><g id="SvgjsG1014"><g id="SvgjsG1013"><g id="SvgjsG1012"><path d="M433.9 242.3c-3.2.7-5.3 1.3-6.5 1.9V286c1.2 0 3.2-.4 5-.7 6.5-1.3 11.9-4.2 15.6-8.8 3.7-4.5 5.8-10.7 5.9-18.3 0-6.6-1.9-11.3-5.3-13.9-3.5-2.6-8.5-3.3-14.7-2z" id="SvgjsPath1011" style="fill:#1c1c1b"/><path d="M86 213.1v77.3c11.1 3 21.9 5.7 32.3 8.1 10.4 2.4 20.6 4.4 30.5 6.2 9.9 1.8 19.5 3.4 29 4.7 9.4 1.3 18.6 2.5 27.7 3.4 9 1 17.9 1.7 26.7 2.3 8.8.6 17.5 1.1 26.1 1.3 8.6.3 17.2.4 25.7.4s17.1-.1 25.7-.4c8.6-.3 17.3-.7 26.1-1.3 8.8-.6 17.7-1.4 26.7-2.3 9-.9 18.3-2.1 27.7-3.4 9.4-1.3 19.1-2.9 29-4.7 9.9-1.8 20-3.9 30.5-6.2 10.5-2.4 21.2-5 32.3-8.1v-77.3c-11.1 3-21.9 5.7-32.3 8.1-10.4 2.4-20.6 4.4-30.5 6.2-9.9 1.8-19.5 3.4-29 4.7-9.4 1.3-18.6 2.5-27.7 3.4-9 1-17.9 1.7-26.7 2.3-8.8.6-17.5 1.1-26.1 1.3-8.6.3-17.2.4-25.7.4s-17.1-.1-25.7-.4c-8.6-.3-17.3-.7-26.1-1.3-8.8-.6-17.7-1.4-26.7-2.3-9-1-18.3-2.1-27.7-3.4-9.4-1.3-19.1-2.9-29-4.7-9.9-1.8-20-3.9-30.5-6.2-10.5-2.3-21.1-5.1-32.3-8.1zm52.3 83.4c-8-1.6-13.9-2.9-19.8-4.2-5.9-1.3-11.9-2.7-19.8-4.8v-64c5.7 1.5 8.6 2.2 14.3 3.5v51.8c10.1 2.4 15.1 3.4 25.3 5.5v12.2zM244 309.7c-6.3-.3-9.5-.5-15.8-1l-5.5-28c-1.2-6.6-2.3-12.6-3.1-20h-.2c-1.1 7.1-2.2 13.1-3.7 19.4-2.4 10.8-3.7 16.2-6.1 27-6.4-.6-9.6-1-15.9-1.8-2-8.8-3.7-16.1-5.3-23-1.6-6.8-3-13.2-4.6-20.1-1.6-6.9-3.3-14.2-5.3-23 6.2.9 9.3 1.3 15.5 2 1.9 10.8 2.9 16.2 4.9 27 1.4 7.8 2.8 16.2 3.8 22.8h.2c1-6.8 2.6-14.4 4.2-22.1 2.2-10.3 3.3-15.4 5.4-25.7 6.2.6 9.3.9 15.5 1.3 2.1 10.9 3.1 16.4 5.2 27.3 1.4 7.6 2.5 14.5 3.4 21.7h.2c1-7.1 2.4-14.5 3.7-22 2.1-10.4 3.2-15.6 5.3-25.9 5.9.3 8.9.4 14.8.6-2.2 8.5-4.1 15.5-5.8 22.1-1.7 6.6-3.3 12.7-5.1 19.2-1.8 6.5-3.5 13.8-5.7 22.2zm103.2-1.6c-3.2-5.3-5.5-9.2-7.9-13.2-2.4-4-4.7-8-7.9-13.3-2.2 2.8-3.3 4.3-5.6 7.1v20.9c-5.8.3-8.7.5-14.5.7v-64c5.8-.2 8.7-.3 14.5-.7v28.3h.3c1.4-2.6 3-4.9 4.4-7.3 5.9-8.9 8.8-13.3 14.6-22.3 7.2-.6 10.7-.9 17.9-1.7-4.3 5.9-7.5 10.3-10.6 14.7-3.2 4.4-6.4 8.7-10.7 14.5 4.5 7 7.9 12.2 11.2 17.4 3.4 5.2 6.7 10.4 11.2 17.3-6.7.7-10.1 1-16.9 1.6zm111.3-25.5c-3.3 3.6-7.5 6.6-12.5 9.1-4.9 2.5-10.6 4.3-16.8 5.5-7.5 1.5-12.8 1.9-16.4 2.1v-62.9c5.3-1.8 12.2-3.5 19.5-5 12.1-2.4 19.9-2 26 1.1 6.5 3.4 10.7 10.2 10.7 21.5 0 6.1-1.1 11.6-3 16.4-1.9 4.8-4.4 8.9-7.5 12.2z" id="SvgjsPath1010" style="fill:#1c1c1b"/></g></g></g><g id="SvgjsG1009"><g id="SvgjsG1008"><path d="M292.4 156.4c.4 8 .8 14.1 1.1 20.1.3 6 .7 12.1 1.1 20.1 0 2.6 1.5 4.9 3.7 6 2.2 1.1 4.9.7 6.8-1 6.3-4.9 11-8.6 15.7-12.4 4.7-3.8 9.4-7.6 15.6-12.8-6-5.7-12.9-10.2-20.3-13.6-7.4-3.3-15.4-5.5-23.7-6.4z" id="SvgjsPath1007" style="fill:#3f66af"/><path d="M266.2 157.8c-6.9 1.5-13.5 3.9-19.6 7.1-6.1 3.2-11.8 7.2-16.9 12 6.3 5.1 11 8.8 15.7 12.6 4.7 3.7 9.5 7.4 15.8 12.3 1.9 1.5 4.5 1.9 6.6.8 2.1-1.1 3.6-3.3 3.7-5.7h.2c.5-8 .8-14.1 1.1-20.1.3-6 .7-12 1.1-20.1-2.5.2-5.1.6-7.7 1.1z" id="SvgjsPath1006" style="fill:#3f66af"/><path d="M440.6 168.2c-2-8.1-4-16.5-6.1-25.4-2.2-9-4.5-18.6-7-29.3-1.7-7-6.4-12.2-12.7-14.1-9.7-3-18.4-5.8-26.6-8.6-8.2-2.8-15.8-5.5-23.1-8.3-7.4-2.7-14.6-5.5-22-8.5s-15-6.1-23.1-9.6c-8.2-3.5-16.9-7.4-26.6-11.9-3.5-1.7-7.4-2.4-11.2-2.2h.1c-3.1.3-6.2 1.2-9 2.7-9.7 5-18.5 9.3-26.6 13.1-8.2 3.8-15.8 7.3-23.2 10.5-7.4 3.2-14.6 6.2-22 9.2-7.4 2.9-15 5.8-23.2 8.8-8.2 3-16.9 6-26.6 9.1-6.3 2-11 7-12.7 13.8-2.5 10.3-4.8 19.5-7 28.1-2.1 8.6-4.1 16.5-6.1 24.3-1.9 7.7-3.8 15.3-5.8 23-1.8 7.3-3.7 14.8-5.8 22.7l4.8 1.2c10.4 2.5 20.5 4.7 30.4 6.6 9.9 1.9 19.4 3.6 28.8 5 3.1.5 6.2.9 9.2 1.3 0-3.6.2-7.2.6-10.7.9-7.8 2.6-15.3 5.3-22.4 2.7-7.1 6.2-13.9 10.6-20.1-1-1-1.4-1.5-2.4-2.5-.1-1.6-.6-3.1-1.4-4.5-3.4-3.5-7-6.5-10.9-9.3-2.1-1.4-4.1-2.9-6-4.5l-1.5-1.5c-3.4-3-4.2-8.1-1.7-11.4 1.4-1.6 3.6-2.3 5.8-1.9 1.8.3 3.6 1.2 5 2.6.6.6 1 .9 1.6 1.5 1.7 1.9 3.3 3.8 4.7 5.8 2.9 3.7 6.2 7.2 9.8 10.3 1.3.9 2.9 1.2 4.3.9 1 .9 1.6 1.3 2.6 2.2 6.5-6.5 13.9-12 22-16.3 8.1-4.3 16.8-7.5 26-9.5 4.4-1 8.8-1.6 13.2-2 .1-1.3.1-1.9.2-3.2 1.1-1.1 2-2.4 2.4-4 .2-4.7 0-9.3-.7-13.9-.5-2.4-.8-4.8-1-7.3v-2.2c-.2-4.4 3-8.2 7.2-8.6l.1.1c4.2.2 7.4 3.9 7.2 8.4v2.3c-.2 2.5-.5 4.9-1 7.3-.7 4.6-1 9.3-.8 13.9.3 1.6 1.2 2.9 2.4 3.8 0 .5.2 2.3.2 3.4 7.7.5 15.3 1.9 22.5 4.2 7.2 2.2 14.2 5.2 20.6 9.1 6.5 3.8 12.5 8.4 17.9 13.8 1.1-1 1.7-1.4 2.8-2.4 1.5.1 3-.2 4.4-1 3.5-3.3 6.6-6.9 9.5-10.8 1.5-2.1 3.1-4.1 4.7-6.1l1.6-1.6c2-2.4 4.9-3.6 7.6-3 1.6.3 2.9 1.3 3.8 2.7 2.2 3.3 1.2 8.3-2.2 11.2-.6.7-.9 1-1.6 1.6-1.9 1.7-3.9 3.2-6 4.7-3.8 2.9-7.4 6.1-10.8 9.6-1 1.3-1.4 3-1.3 4.6-1 1.1-1.5 1.7-2.6 2.9 4.4 6.3 7.9 13.2 10.6 20.5 2.7 7.3 4.5 15 5.4 23 .4 3.7.6 7.4.6 11.2 3.6-.5 7.3-1 11-1.5 9.4-1.4 19-3 28.8-4.9 9.8-1.9 20-4 30.4-6.5 1-.2 2.1-.5 3.1-.8-2.1-8.4-4-16.3-5.8-24-1.9-8.7-3.8-16.6-5.7-24.7z" id="SvgjsPath1005" style="fill:#3f66af"/><path d="M348.1 190.5c-5.7 6-9.9 10.5-14.2 14.8-4.3 4.3-8.6 8.7-14.3 14.4-1.8 1.8-2.6 4.3-2 6.7.5 2.4 2.3 4.3 4.6 4.8v.2c5 1.2 9.1 2.2 13 3.1h.6c7.9-.6 16-1.3 24.1-2.1 0-6.3-.7-12.6-2.1-18.6-2.1-8.3-5.3-16.2-9.7-23.3z" id="SvgjsPath1004" style="fill:#3f66af"/><path d="M289.2 222.7h-11.9c-3 3.8-4.4 5.7-7.4 9.5.3 1.5.6 2.8.8 4 4.5.1 8.9.1 13.4.2 3.8 0 7.7 0 11.5-.1.3-1.2.5-2.5.9-4-3-3.9-4.4-5.8-7.3-9.6z" id="SvgjsPath1003" style="fill:#3f66af"/><path d="M244.4 231.3c2.3-.5 4.1-2.3 4.6-4.7.5-2.4-.2-5-2-6.7v-.2c-5.8-5.7-10.1-9.9-14.4-14.3-4.3-4.3-8.6-8.7-14.4-14.5-4.4 7-7.7 14.7-9.5 22.9-1.4 5.8-2 11.9-2 18.1 8.5 1 17 1.7 25.3 2.4 3.7-.8 7.7-1.7 12.5-2.9z" id="SvgjsPath1002" style="fill:#3f66af"/><path d="M372.8 195.9c-2.7-7.3-6.2-14.2-10.6-20.5 1-1.1 1.5-1.7 2.6-2.9-.1-1.6.4-3.2 1.3-4.6 3.3-3.5 7-6.7 10.8-9.6 2.1-1.4 4.1-3 6-4.7.6-.6.9-1 1.6-1.6 3.4-2.8 4.4-7.8 2.2-11.2-.9-1.4-2.3-2.3-3.8-2.7-2.7-.6-5.6.6-7.6 3l-1.6 1.6c-1.7 1.9-3.3 4-4.7 6.1-2.9 3.9-6 7.5-9.5 10.8-1.4.8-2.9 1.1-4.4 1-1.1 1-1.7 1.4-2.8 2.4-5.4-5.4-11.4-10-17.9-13.8-6.5-3.8-13.4-6.8-20.6-9.1-7.2-2.2-14.8-3.6-22.5-4.2 0-1.2-.1-2.9-.2-3.4-1.2-.9-2.1-2.2-2.4-3.8-.2-4.7.1-9.3.8-13.9.5-2.4.8-4.9 1-7.3v-2.3c.2-4.4-3-8.1-7.2-8.4l-.1-.1c-4.2.4-7.4 4.2-7.2 8.6v2.2c.2 2.4.5 4.9 1 7.3.7 4.6.9 9.3.7 13.9-.4 1.5-1.3 2.9-2.4 4-.1 1.3-.1 1.9-.2 3.2-4.5.4-8.9 1.1-13.2 2-9.2 2-17.9 5.2-26 9.5-8.1 4.3-15.5 9.8-22 16.3-1-.9-1.6-1.3-2.6-2.2-1.5.3-3 0-4.3-.9-3.5-3.1-6.8-6.5-9.8-10.3-1.5-2-3.1-4-4.7-5.8-.6-.6-1-.9-1.6-1.5-1.4-1.4-3.2-2.3-5-2.6-2.2-.4-4.4.3-5.8 1.9-2.5 3.3-1.8 8.3 1.7 11.4l1.5 1.5c1.9 1.6 3.9 3.1 6 4.5 3.9 2.7 7.5 5.8 10.9 9.3.9 1.4 1.4 3 1.4 4.5.9 1 1.4 1.5 2.4 2.5-4.4 6.2-7.9 13-10.6 20.1-2.7 7.1-4.4 14.6-5.3 22.4-.4 3.5-.6 7.1-.6 10.7 6.2.9 12.3 1.6 18.4 2.3.3 0 .6.1.9.1 0-6.2.6-12.2 2-18.1 1.9-8.2 5.1-15.9 9.5-22.9 5.7 5.8 10.1 10.2 14.4 14.5 4.3 4.3 8.7 8.6 14.4 14.3v.2c1.8 1.7 2.6 4.3 2 6.7-.6 2.4-2.3 4.2-4.6 4.7v.1c-4.7 1.1-8.7 2-12.5 2.9h.5c8.8.7 17.4 1.1 26 1.5 4.1.2 8.2.3 12.3.4-.2-1.2-.5-2.4-.8-4 3-3.8 4.4-5.7 7.4-9.5h11.9c2.9 3.8 4.4 5.7 7.3 9.5-.3 1.5-.6 2.8-.9 4l14.1-.3c8.4-.3 16.9-.7 25.4-1.3-3.9-.9-8-1.9-13-3.1v-.2c-2.3-.5-4.1-2.4-4.6-4.8s.2-5 2-6.7c5.7-5.7 10-10 14.3-14.4 4.3-4.4 8.6-8.8 14.3-14.7v-.1c4.4 7.1 7.7 15 9.6 23.3 1.4 6 2.1 12.2 2.1 18.6.8-.1 1.7-.2 2.5-.3 5.5-.6 11-1.3 16.6-2 0-3.8-.2-7.5-.6-11.2-1.1-7.8-2.9-15.5-5.6-22.8zm-99.9-19.2c-.3 6-.7 12-1.1 20.1h-.2c-.1 2.5-1.5 4.6-3.7 5.7-2.2 1.1-4.7.7-6.6-.8-6.3-4.8-11.1-8.5-15.8-12.3-4.7-3.7-9.5-7.5-15.7-12.6 5.1-4.8 10.7-8.8 16.9-12 6.1-3.2 12.7-5.6 19.6-7.1 2.6-.5 5.2-.9 7.8-1.2-.5 8.1-.9 14.1-1.2 20.2zm48 12.5c-4.7 3.8-9.4 7.5-15.7 12.4-1.9 1.7-4.6 2.1-6.8 1s-3.7-3.4-3.7-6c-.4-8-.8-14.1-1.1-20.1-.3-6-.7-12.1-1.1-20.1 8.3.9 16.3 3.1 23.7 6.4 7.4 3.4 14.3 7.9 20.3 13.6-6.3 5.2-10.9 9-15.6 12.8z" id="SvgjsPath1001" style="fill:#fff"/></g></g></g></switch></svg><style>@media (prefers-color-scheme:light){:root{filter:none}}</style></svg>